<svg width="105" height="118" viewBox="0 0 105 118" fill="none" xmlns="http://www.w3.org/2000/svg">
<path fill-rule="evenodd" clip-rule="evenodd" d="M40.024 1.603C37.013 2.412 32.513 4.257 30.024 5.703C22.869 9.859 10.189 22.735 6.94001 29.145C4.27301 34.404 1.48201 46.352 2.52501 48.041C2.77901 48.452 2.31501 50.396 1.49301 52.362C-1.72399 60.063 0.596013 74.705 6.24501 82.355C7.52301 84.085 10.245 88.946 12.293 93.158C28.052 125.556 75.951 126.032 91.437 93.945C93.177 90.34 95.762 85.84 97.182 83.945C103.407 75.639 106.094 64.899 104.053 56.481C103.389 53.741 102.46 48.575 101.99 45C100.921 36.888 98.832 30.972 94.835 24.743C91.292 19.222 78.888 8.004 73.01 5.005C63.435 0.12 50.504 -1.213 40.024 1.603ZM51 7.607C51 11.5 50.741 12.115 49.33 11.573C44.809 9.838 38.043 8.93 34 9.514C30.423 10.031 29.748 9.91 30.711 8.922C32.338 7.251 44.811 3.058 48.25 3.026C50.856 3.001 51 3.242 51 7.607ZM69.461 6.888L75.5 9.757L69.5 9.305C65.78 9.025 61.695 9.414 58.75 10.329L54 11.804V7.266V2.728L58.711 3.374C61.303 3.729 66.14 5.311 69.461 6.888ZM44.345 13.079L48.189 14.146L44.187 17.572C41.986 19.456 38.906 23.022 37.343 25.497C35.779 27.972 34.105 29.997 33.623 29.998C33.141 29.999 29.429 28.169 25.375 25.931C18.835 22.321 18.12 21.644 19.037 19.931C22.177 14.063 35.196 10.538 44.345 13.079ZM79.553 14.77C81.782 15.908 84.127 17.983 84.763 19.38C85.889 21.851 85.709 22.032 78.212 25.96C73.972 28.182 70.277 29.999 70.001 29.998C69.726 29.997 68.209 27.952 66.63 25.454C65.052 22.956 62.038 19.469 59.933 17.706L56.105 14.5L59.302 13.265C63.923 11.481 74.677 12.28 79.553 14.77ZM51 28.558V40.115L45.999 37.308C36.278 31.851 36.436 32.145 40.313 26.692C43.047 22.847 49.31 17 50.694 17C50.862 17 51 22.201 51 28.558ZM57.588 19.812C60.739 22.447 67.08 31.061 66.527 31.956C66.26 32.388 63.332 34.355 60.021 36.328L54 39.915V28.957C54 22.931 54.338 18.015 54.75 18.033C55.162 18.052 56.44 18.852 57.588 19.812ZM14.228 32.793L13.751 42.086L9.91501 44.043C7.80601 45.119 5.86501 46 5.60301 46C4.80101 46 6.18201 38.713 7.68601 35C9.32301 30.963 14.049 22.685 14.44 23.171C14.586 23.352 14.49 27.682 14.228 32.793ZM95.642 32.581C96.934 35.376 98.291 39.845 98.657 42.512L99.321 47.362L95.411 45.021C93.26 43.733 91.219 42.414 90.875 42.09C90.531 41.765 89.968 37.225 89.624 32L88.999 22.5L91.145 25C92.326 26.375 94.349 29.786 95.642 32.581ZM25.296 29.385C31.053 32.688 31.076 32.72 28.796 34.211C26.018 36.026 18.292 40 17.54 40C17.243 40 17 36.85 17 33C17 28.051 17.366 26.009 18.25 26.03C18.938 26.047 22.108 27.557 25.296 29.385ZM87 33C87 36.85 86.736 40 86.412 40C85.569 40 73 32.906 73 32.43C73 31.793 84.372 26.101 85.75 26.048C86.636 26.014 87 28.041 87 33ZM42.844 38.935L49.189 42.799L42.061 47.033C38.141 49.362 34.829 51.095 34.7 50.884C34.152 49.985 35.219 35.003 35.829 35.035C36.198 35.055 39.355 36.809 42.844 38.935ZM69 42.957V50.915L62.979 47.328C59.668 45.355 56.746 43.398 56.487 42.978C56.058 42.284 66.487 35.286 68.25 35.085C68.662 35.038 69 38.581 69 42.957ZM84.483 44.028C83.932 44.919 73.659 51 72.704 51C72.401 51 72.006 47.486 71.826 43.191L71.5 35.383L78.254 39.28C81.969 41.424 84.772 43.56 84.483 44.028ZM31.614 50.72C31.016 51.317 21.329 46.102 19.95 44.44C19.197 43.532 20.56 42.323 25.217 39.764L31.5 36.312L31.796 43.277C31.959 47.107 31.877 50.456 31.614 50.72ZM18.025 47.018C19.584 48.128 22.744 50.107 25.048 51.415L29.237 53.795L21.368 58.379C17.041 60.901 13.05 62.969 12.5 62.975C10.736 62.995 6.81001 56.2 6.65201 52.856C6.52101 50.063 7.04801 49.306 10.5 47.326C15.339 44.552 14.604 44.582 18.025 47.018ZM62.25 50.43C64.862 51.948 66.996 53.485 66.991 53.845C66.983 54.435 55.882 62.021 53.839 62.833C53.377 63.017 53 59.027 53 53.968V44.77L55.25 46.22C56.487 47.017 59.638 48.911 62.25 50.43ZM91.316 46.125C94.788 47.913 98 51.207 98 52.979C98 54.974 92.39 64 91.15 64C90.659 64 86.77 61.724 82.509 58.942L74.762 53.885L81.631 49.536C89.82 44.352 88.664 44.759 91.316 46.125ZM51 55.057V64.113L44.032 59.307C40.199 56.663 37.059 54.275 37.052 54C37.039 53.41 49.156 46.104 50.25 46.042C50.663 46.019 51 50.075 51 55.057ZM7.55501 62.661C9.48601 65.192 9.81601 66.375 9.09801 68.191C8.59501 69.461 7.78101 72.075 7.28801 74L6.39201 77.5L4.69601 72.572C2.83501 67.164 2.28201 52.384 4.11301 56.97C4.65501 58.329 6.20401 60.889 7.55501 62.661ZM31.648 75.685C31.245 76.088 19.022 68.993 16.199 66.718C15.209 65.921 16.887 64.523 23.199 60.883L31.5 56.096L31.788 65.677C31.946 70.946 31.883 75.45 31.648 75.685ZM80.5 61.359C83.8 63.549 86.873 65.659 87.328 66.048C88.006 66.627 74.007 76 72.465 76C72.209 76 72 71.473 72 65.941C72 58.162 72.283 56.051 73.25 56.63C73.938 57.041 77.2 59.17 80.5 61.359ZM101.756 63.448C101.484 66.844 100.222 71.845 98.952 74.561L96.643 79.5L95.983 74.5C95.619 71.75 94.979 68.719 94.56 67.765C94.038 66.578 94.598 65.078 96.33 63.02C97.722 61.365 99.15 59.102 99.503 57.991C100.82 53.84 102.25 57.302 101.756 63.448ZM48.7 66.633C47.962 67.371 35.895 75 35.466 75C35.21 75 35 70.946 35 65.992V56.984L42.012 61.647C45.869 64.211 48.878 66.455 48.7 66.633ZM68.805 70.455L68.5 74.911L61.782 70.581L55.064 66.252L61.782 61.775L68.5 57.299L68.805 61.649C68.972 64.042 68.972 68.005 68.805 70.455ZM23.24 74.8C26.398 76.682 28.767 78.567 28.507 78.989C28.246 79.411 25.114 81.586 21.546 83.823L15.059 87.891L13.112 85.416C10.492 82.084 9.55601 75.875 11.011 71.468L12.19 67.894L14.845 69.637C16.305 70.595 20.083 72.918 23.24 74.8ZM51 78.473V87.946L43.685 83.223L36.371 78.5L43.435 73.833C47.321 71.266 50.612 69.129 50.75 69.083C50.888 69.037 51 73.263 51 78.473ZM61.75 74.268C65.188 76.419 68 78.298 68 78.443C68 78.836 54.107 88 53.512 88C53.23 88 53 83.698 53 78.441C53 71.067 53.286 69.05 54.25 69.619C54.938 70.025 58.313 72.117 61.75 74.268ZM92.923 72.75C94.129 77.278 92.91 83.539 90.321 86.111C88.563 87.858 88.266 87.775 81.75 83.721C78.037 81.412 75 79.29 75 79.005C75 78.406 90.148 69.091 91.211 69.036C91.603 69.016 92.373 70.688 92.923 72.75ZM31.591 98.742C31.321 99.012 28.17 97.082 24.589 94.452L18.078 89.672L24.789 85.493L31.5 81.314L31.791 89.783C31.951 94.441 31.861 98.473 31.591 98.742ZM84.979 90.108C85.001 90.749 73.627 98 72.599 98C72.27 98 72 94.172 72 89.494V80.987L78.479 85.244C82.043 87.585 84.968 89.774 84.979 90.108ZM42.681 86.199C46.086 88.508 48.685 90.7 48.457 91.069C48.017 91.781 36.158 99 35.428 99C35.193 99 35 95.175 35 90.5C35 85.825 35.335 82 35.744 82C36.154 82 39.275 83.889 42.681 86.199ZM69 90.44V98.88L62.509 95.19C58.939 93.16 56.014 91.221 56.009 90.879C56.002 90.365 67.962 82.038 68.75 82.009C68.888 82.004 69 85.798 69 90.44ZM23.046 97.172L30.135 102.345L27.318 103.586C24.675 104.75 24.293 104.6 21.16 101.164C17.924 97.614 14.427 92 15.453 92C15.731 92 19.148 94.328 23.046 97.172ZM87.562 94.88C85.378 99.103 81.027 104 79.458 104C78.708 104 76.963 103.485 75.581 102.855C73.123 101.735 73.238 101.603 80.784 96.895C85.028 94.246 88.624 92.061 88.776 92.04C88.927 92.018 88.381 93.296 87.562 94.88ZM67 102.244C67 104.02 55.49 113.894 54.596 112.885C54.408 112.673 53.998 108.162 53.686 102.86L53.117 93.221L60.058 97.24C63.876 99.45 67 101.702 67 102.244ZM51 104C51 109.5 50.59 114 50.09 114C49.012 114 40.241 107.126 37.791 104.362C36.143 102.502 36.32 102.287 42.791 98.297C46.481 96.023 49.837 94.125 50.25 94.081C50.663 94.036 51 98.5 51 104ZM40.5 111.479C43.432 114.053 43.443 114.098 41 113.476C37.123 112.489 28 107.951 28 107.01C28 106.546 29.237 105.738 30.75 105.214C33.057 104.415 33.822 104.631 35.5 106.553C36.6 107.814 38.85 110.03 40.5 111.479ZM74.041 105.375L77.311 106.75L74.724 108.445C72.062 110.189 62.691 114 61.064 114C60.389 114 69.839 104.149 70.635 104.022C70.71 104.01 72.242 104.619 74.041 105.375Z" fill="white"/>
</svg>
