<svg width="313" height="284" viewBox="0 0 313 284" fill="none" xmlns="http://www.w3.org/2000/svg">
<path d="M121.426 158.574L2.12132 277.879C0.231426 279.769 1.56992 283 4.24264 283H74.1472C90.0602 283 105.321 276.679 116.574 265.426L172.355 209.645C181.732 200.268 194.45 195 207.711 195H242.856C262.636 195 281.145 185.251 292.334 168.94L311.5 141L171.75 1.25L108.879 64.1213C108.316 64.6839 108 65.447 108 66.2426V131.672C108 133.453 110.154 134.346 111.414 133.086L171.75 72.75L240 141H163.853C147.94 141 132.679 147.321 121.426 158.574Z" fill="#521159"/>
</svg>